<svg width="236" height="236" viewBox="0 0 236 236" fill="none" xmlns="http://www.w3.org/2000/svg">
<path d="M234.378 159.928C234.365 150.727 234.318 131.895 234.318 125.205C234.318 125.205 234.318 125.111 234.323 124.93C192.824 101.055 130.337 64.939 101.957 48.512C77.9252 62.4137 29.5603 90.3602 1.57983 106.434C1.57983 114.239 1.63681 137.365 1.63219 144.225C27.1551 159.004 93.9896 197.637 135.079 221.263C164.247 204.496 211.939 176.934 234.382 163.945V163.591C234.382 162.695 234.38 161.442 234.378 159.928Z" fill="white"/>
<path d="M101.403 48.8299C77.2771 62.7886 29.6937 90.2832 1.88257 106.261C22.9568 118.466 99.1598 162.52 134.484 182.778C160.276 167.996 216.757 135.368 234.319 125.202C234.319 125.202 234.319 125.108 234.323 124.927C192.824 101.053 130.337 64.9367 101.957 48.5096L101.403 48.8299Z" fill="#F4C058"/>
<path d="M235.918 159.928C235.909 153.717 235.897 147.507 235.882 141.296C235.872 135.844 235.744 130.378 235.863 124.927C235.863 124.659 235.793 124.395 235.659 124.161C235.525 123.928 235.333 123.734 235.101 123.598C216.777 113.056 198.462 102.498 180.155 91.9247C161.998 81.444 143.844 70.9564 125.694 60.4619C118.04 56.0364 110.386 51.6091 102.734 47.18C102.497 47.0438 102.229 46.9721 101.956 46.9721C101.684 46.9721 101.416 47.0438 101.179 47.18C88.9832 54.2381 76.784 61.2901 64.5818 68.3359C50.2906 76.591 35.9957 84.8394 21.6972 93.0811C14.7351 97.0929 7.77065 101.101 0.803891 105.105C0.572491 105.241 0.380545 105.436 0.246908 105.669C0.113272 105.902 0.0425429 106.165 0.0416692 106.434C0.0416692 115.327 0.0550145 124.22 0.0817051 133.113C0.0858113 135.308 0.0891476 137.503 0.091714 139.699C-0.0238465 141.274 -0.0138058 142.856 0.121741 144.43C0.298823 145.48 1.44831 145.898 2.27752 146.38L4.38864 147.6L9.03281 150.287C16.8182 154.794 24.6068 159.299 32.3984 163.801C41.9772 169.339 51.5571 174.874 61.138 180.408C71.3225 186.29 81.509 192.169 91.6977 198.047C101.488 203.693 111.281 209.339 121.077 214.985C125.427 217.49 129.716 220.226 134.177 222.523C135.493 223.201 136.729 222.093 137.856 221.445L141.09 219.587C143.358 218.281 145.627 216.975 147.896 215.669C158.002 209.85 168.104 204.024 178.202 198.191C188.342 192.34 198.479 186.485 208.614 180.626C216.912 175.829 225.209 171.03 233.506 166.228C234.384 165.719 235.711 165.253 235.892 164.145C236.013 162.741 236.021 161.329 235.916 159.924C235.916 157.943 232.836 157.939 232.836 159.924C232.836 161.263 232.836 162.602 232.836 163.941L233.599 162.611C221.87 169.4 210.137 176.183 198.402 182.962C184.184 191.174 169.964 199.381 155.741 207.583C148.595 211.702 141.446 215.818 134.296 219.929H135.85C117.145 209.174 98.4504 198.399 79.767 187.607C61.3104 176.953 42.857 166.293 24.4066 155.624C17.0744 151.384 9.74344 147.143 2.4138 142.899L3.17602 144.229C3.18218 133.978 3.14445 123.728 3.12982 113.477C3.12623 111.13 3.12418 108.784 3.12366 106.437L2.36067 107.767C15.5089 100.214 28.6488 92.6456 41.7806 85.0624C55.8106 76.9623 69.8406 68.8574 83.8707 60.7475C90.1594 57.113 96.4471 53.4769 102.734 49.8393H101.179C116.368 58.6308 131.561 67.4156 146.759 76.1937C165.787 87.1887 184.821 98.1757 203.858 109.155C213.752 114.86 223.648 120.561 233.547 126.257L232.784 124.927C232.665 130.378 232.793 135.844 232.803 141.296C232.816 147.507 232.828 153.717 232.839 159.928C232.841 161.91 235.921 161.913 235.918 159.928Z" fill="#211715"/>
<path d="M133.25 182.675C133.25 193.319 133.269 203.962 133.306 214.605C133.309 216.761 133.312 218.914 133.313 221.064C133.313 223.046 136.393 223.049 136.393 221.064C136.393 210.67 136.355 200.276 136.338 189.883C136.334 187.479 136.331 185.075 136.33 182.671C136.33 180.69 133.25 180.687 133.25 182.671V182.675Z" fill="#211715"/>
<path d="M2.64149 108.473C8.85732 112.074 15.0747 115.673 21.2936 119.268C30.0389 124.327 38.7859 129.383 47.5348 134.436C57.4658 140.174 67.3977 145.91 77.3307 151.643C87.1031 157.282 96.8772 162.918 106.653 168.55C114.922 173.313 123.193 178.07 131.468 182.822L134.013 184.284C135.735 185.271 137.288 182.612 135.567 181.625C127.569 177.039 119.576 172.445 111.587 167.844C101.922 162.279 92.2605 156.709 82.6016 151.136C72.6158 145.371 62.6306 139.604 52.6463 133.835C43.6798 128.655 34.7141 123.472 25.7491 118.288C19.1468 114.469 12.5458 110.649 5.94599 106.827L4.19596 105.81C2.4775 104.815 0.925337 107.475 2.64149 108.47V108.473Z" fill="#211715"/>
<path d="M134.808 194.319C127.909 190.363 121.014 186.399 114.124 182.428C105.718 177.588 97.3141 172.744 88.9127 167.895C80.247 162.897 71.5831 157.895 62.921 152.889C55.1006 148.372 47.2813 143.852 39.463 139.33C33.7317 136.016 28.0007 132.7 22.2699 129.383L20.7416 128.497C19.0232 127.503 17.471 130.163 19.1871 131.157C24.5812 134.281 29.9766 137.403 35.3732 140.524C43.0005 144.934 50.6287 149.344 58.2575 153.752C66.8755 158.73 75.4945 163.707 84.1146 168.682C92.6176 173.589 101.122 178.493 109.628 183.394C116.763 187.505 123.903 191.611 131.049 195.712L133.253 196.977C134.976 197.964 136.528 195.304 134.808 194.317V194.319Z" fill="#211715"/>
<path d="M126.356 201.926C119.673 198.093 113 194.244 106.338 190.377C104.619 189.381 103.067 192.042 104.783 193.036C111.449 196.896 118.122 200.746 124.801 204.585C126.523 205.573 128.076 202.913 126.356 201.926Z" fill="#211715"/>
<path d="M192.036 192.747C188.48 194.789 176.95 201.451 171.705 204.47C166.645 201.564 157.669 196.391 150.967 192.523C157.3 188.88 164.266 184.869 171.313 180.801C178.191 184.773 187.223 189.985 192.036 192.747Z" fill="#EA6D67"/>
<path d="M150.967 194.063H150.975L150.198 193.853C156.637 197.576 163.082 201.291 169.533 204.998C170.125 205.441 170.791 205.774 171.501 205.982C172.271 206.086 172.985 205.51 173.623 205.143C174.837 204.444 176.05 203.744 177.264 203.044C180.024 201.452 182.783 199.861 185.543 198.27C187.965 196.873 190.389 195.476 192.813 194.08C193.042 193.942 193.231 193.746 193.362 193.514C193.493 193.281 193.562 193.018 193.562 192.75C193.562 192.483 193.493 192.22 193.362 191.987C193.231 191.754 193.042 191.559 192.813 191.421C185.899 187.451 178.991 183.469 172.09 179.474C170.37 178.482 168.818 181.142 170.536 182.133C177.441 186.121 184.348 190.103 191.258 194.08V191.418C184.475 195.314 177.7 199.222 170.933 203.141H172.486C169.099 201.193 165.711 199.243 162.323 197.289C160.424 196.195 158.525 195.1 156.626 194.005L153.799 192.373C153.008 191.917 151.902 190.98 150.968 190.98C148.986 190.98 148.983 194.06 150.968 194.06L150.967 194.063Z" fill="#211715"/>
<path d="M220.821 150.429C211.347 155.916 201.869 161.395 192.387 166.866C179.637 174.228 166.882 181.583 154.122 188.931C147.523 192.729 140.922 196.524 134.319 200.314C132.599 201.298 134.149 203.961 135.873 202.973C148.068 195.992 160.247 188.983 172.411 181.945C184.463 174.997 196.512 168.042 208.557 161.081C213.163 158.417 217.769 155.753 222.375 153.087C224.089 152.095 222.54 149.432 220.82 150.429L220.821 150.429Z" fill="#211715"/>
<path d="M135.429 184.011C148.81 176.343 162.177 168.651 175.531 160.935C189.938 152.627 204.34 144.312 218.738 135.99C224.191 132.839 229.643 129.686 235.094 126.532C236.808 125.539 235.259 122.876 233.539 123.873C222.163 130.457 210.784 137.035 199.399 143.604C184.442 152.242 169.48 160.871 154.513 169.491C147.635 173.45 140.755 177.404 133.874 181.352C132.155 182.337 133.704 185 135.429 184.011Z" fill="#211715"/>
<path d="M201.911 103.484C201.901 96.6151 201.866 82.5563 201.866 77.5595C201.866 77.5595 201.866 77.4895 201.87 77.3547C170.89 59.5303 124.238 32.5677 103.052 20.3044C85.1125 30.6844 49.0032 51.5485 28.1145 63.5485C28.1145 69.3753 28.1576 86.6392 28.1538 91.7615C47.2085 102.794 97.104 131.636 127.782 149.275C149.558 136.756 185.162 116.181 201.916 106.483V106.219C201.913 105.55 201.913 104.615 201.911 103.484Z" fill="white"/>
<path d="M101.707 21.082C83.3594 31.6969 48.4943 51.8388 28.1145 63.5485C28.1145 69.3753 28.1576 86.6392 28.1538 91.7615C36.4404 96.5596 50.5585 104.726 66.3957 113.874C66.3842 106.843 66.3542 91.3103 66.3511 85.4004C98.5592 66.7952 125.694 51.105 140.999 42.2448C125.837 33.4854 112.114 25.5506 103.052 20.302L101.707 21.082Z" fill="#8AC46E"/>
<path d="M203.451 103.484C203.438 94.7842 203.22 86.0548 203.41 77.3547C203.41 77.0858 203.34 76.8215 203.206 76.5882C203.072 76.3549 202.879 76.1608 202.647 76.0251C188.971 68.1565 175.301 60.2776 161.637 52.3885C148.083 44.5645 134.533 36.737 120.985 28.9059C115.267 25.5947 109.548 22.2843 103.828 18.9747C103.592 18.8385 103.324 18.7668 103.051 18.7668C102.778 18.7668 102.51 18.8385 102.274 18.9747C93.156 24.2512 84.0357 29.5236 74.9132 34.7919C64.2709 40.9385 53.6259 47.0804 42.9784 53.2177C37.7661 56.2204 32.5524 59.2208 27.3375 62.2188C27.1059 62.3552 26.9138 62.5495 26.78 62.7827C26.6462 63.0158 26.5754 63.2797 26.5745 63.5485C26.5745 70.2653 26.5848 76.9826 26.6053 83.7004C26.6084 85.3265 26.6107 86.9526 26.6122 88.5786C26.6122 89.6734 26.3759 91.1055 26.6692 92.1711C26.9826 93.309 29.1252 94.1036 30.0953 94.6648L33.637 96.7167C46.6143 104.225 59.5949 111.729 72.5788 119.226C87.4711 127.828 102.368 136.42 117.269 145.005L122.367 147.94L124.715 149.29C125.502 149.814 126.326 150.279 127.182 150.681C128.199 151.074 129.149 150.261 129.996 149.773L132.558 148.3C134.285 147.307 136.011 146.313 137.737 145.319C145.256 140.988 152.773 136.654 160.288 132.316C174.051 124.371 187.81 116.42 201.565 108.462C202.406 107.975 203.371 107.596 203.45 106.482C203.52 105.494 203.45 104.475 203.45 103.484C203.45 101.503 200.37 101.499 200.37 103.484C200.37 104.484 200.37 105.483 200.37 106.482L201.133 105.153C192.396 110.21 183.657 115.263 174.914 120.312C164.28 126.456 153.642 132.596 143.001 138.731C137.668 141.805 132.333 144.876 126.998 147.944H128.553C114.605 139.925 100.666 131.892 86.7353 123.846C72.9697 115.9 59.2076 107.949 45.4491 99.9927C39.9411 96.8063 34.4351 93.6193 28.9312 90.4318L29.6934 91.7615C29.6981 84.1308 29.6703 76.4993 29.6588 68.8686C29.6588 67.0947 29.6573 65.3214 29.6542 63.5485L28.892 64.8774C38.7208 59.2313 48.5432 53.5737 58.3591 47.9045C68.8106 41.8744 79.2592 35.8401 89.7049 29.8013C94.4138 27.0809 99.1216 24.3585 103.828 21.634H102.274C113.61 28.1963 124.95 34.7529 136.292 41.3039C150.495 49.5108 164.701 57.7115 178.911 65.906C186.302 70.1662 193.696 74.4264 201.092 78.6867L200.33 77.357C200.139 86.0571 200.358 94.7834 200.371 103.487C200.374 105.465 203.454 105.469 203.451 103.484Z" fill="#211715"/>
<path d="M126.024 120.466C126.024 126.982 126.07 133.499 126.071 140.015C126.071 141.997 129.15 142 129.15 140.015C129.15 133.499 129.104 126.982 129.103 120.466C129.103 118.485 126.024 118.482 126.024 120.466Z" fill="#211715"/>
<path d="M128.637 119.515C116.951 112.814 105.277 106.093 93.6161 99.3514C81.0351 92.092 68.4574 84.8263 55.8831 77.5541C51.1183 74.8009 46.3563 72.0459 41.5972 69.289C39.8795 68.2935 38.3266 70.9544 40.0427 71.9483C49.9773 77.7017 59.9151 83.4486 69.8564 89.1892C82.9188 96.7344 95.9852 104.274 109.055 111.809C115.061 115.268 121.07 118.723 127.082 122.174C128.805 123.161 130.358 120.502 128.637 119.515Z" fill="#211715"/>
<path d="M128.238 121.801C136.683 116.96 145.12 112.106 153.549 107.236C162.61 102.01 171.668 96.7808 180.723 91.5474C184.191 89.5456 187.658 87.5405 191.124 85.532C192.84 84.5396 191.291 81.8772 189.571 82.8727C182.39 87.0303 175.207 91.1817 168.022 95.327C158.618 100.758 149.211 106.183 139.801 111.603C135.43 114.118 131.057 116.631 126.683 119.141C124.964 120.127 126.514 122.789 128.238 121.801Z" fill="#211715"/>
<path d="M67.214 86.6792C78.4851 80.1698 89.7542 73.6586 101.021 67.1456C110.172 61.8588 119.321 56.5679 128.47 51.2729C132.384 49.0093 136.297 46.745 140.209 44.4799C141.924 43.4874 140.376 40.8251 138.655 41.8213C131.088 46.2017 123.52 50.5802 115.95 54.957C105.769 60.8443 95.5864 66.7301 85.4034 72.6143C78.8206 76.4167 72.2403 80.2191 65.6626 84.0215C63.9465 85.0124 65.4956 87.6747 67.2163 86.6808L67.214 86.6792Z" fill="#211715"/>
<path d="M64.8074 85.3873C64.8174 94.1205 64.8543 102.854 64.8551 111.587C64.8551 113.569 67.9348 113.572 67.9348 111.587C67.9348 102.854 67.8971 94.1205 67.8871 85.3873C67.8871 83.4055 64.8074 83.4024 64.8074 85.3873Z" fill="#211715"/>
<path d="M113.533 85.9678C113.449 87.6173 113.03 89.2323 112.301 90.7144C110.772 93.7171 107.822 95.772 104.715 97.0809C101.609 98.3897 101.164 98.0502 97.9493 99.0642C95.4432 99.8549 92.8193 100.994 91.7453 103.53C91.2951 104.829 91.0279 106.185 90.9515 107.558C90.7205 112.753 90.7621 118.157 90.6974 123.503C90.7015 123.876 90.5864 124.241 90.3691 124.544C90.1517 124.847 89.8433 125.073 89.4886 125.189C85.8243 126.257 81.9625 126.463 78.2054 125.79C77.8168 125.662 77.4707 125.429 77.2045 125.118C76.7981 124.735 76.5051 124.247 76.3576 123.709C76.0681 121.282 75.9288 118.944 75.8464 116.605C73.1571 117.201 70.0835 118.233 67.2233 117.535C65.2346 117.05 63.3698 115.534 63.0657 113.509L62.8132 111.837C62.3689 103.661 61.9247 104.691 61.4812 96.5157C61.3318 93.7648 61.2117 90.8645 62.4683 88.4123C63.551 86.5791 65.0456 85.0231 66.8337 83.8675C70.2815 81.3468 74.0205 79.2508 77.9698 77.625C77.9698 77.625 108.388 84.9184 113.533 85.9678Z" fill="#A0A0A0"/>
<path d="M107.312 88.708C109.082 87.7163 111.364 86.5999 113.566 85.2803C117.22 83.0945 120.694 80.3305 121.412 76.6218C121.658 75.017 121.65 73.3836 121.389 71.7813C120.686 66.1054 119.343 58.8597 115.806 54.1909C113.65 51.3329 110.247 47.6466 106.929 45.9458C106.929 45.9458 101.172 43.1587 95.5795 42.7945C86.6007 42.2086 82.0058 46.0367 82.0058 46.0367C76.8027 49.979 73.1946 55.6645 71.8428 62.051L70.2768 71.0683L69.7109 74.3205L107.312 88.708Z" fill="white"/>
<path d="M71.3184 133.142C71.1544 132.336 71.1678 131.504 71.3578 130.704C71.5478 129.904 71.9098 129.154 72.4186 128.508C73.5834 127.124 75.0058 125.978 76.607 125.135C78.2239 126.402 84.7928 126.646 89.494 125.189C89.6536 125.14 89.8049 125.067 89.9428 124.973C90.0006 125.522 90.0375 125.861 90.0375 125.861C90.5264 130.326 87.8217 132.122 86.1048 133.143C84.0603 134.358 81.8581 135.285 79.5604 135.899C78.1796 136.325 76.7269 136.467 75.2897 136.317C74.5726 136.232 73.8826 135.992 73.2678 135.613C72.6531 135.234 72.1284 134.726 71.7303 134.123C71.5481 133.817 71.4095 133.487 71.3184 133.142Z" fill="white"/>
<path d="M57.5655 123.466C57.7739 122.877 58.0707 122.324 58.4455 121.825C59.7112 120.356 61.2523 119.149 62.9819 118.273C63.8628 117.666 64.8618 117.251 65.9137 117.056C66.3327 117.265 66.7738 117.427 67.2288 117.539C70.089 118.237 73.1618 117.206 75.8519 116.608C75.9096 118.295 75.9989 119.98 76.1522 121.698L74.9441 121.898C75.0342 123.823 73.3273 125.324 71.6704 126.309C69.6939 127.483 67.5648 128.379 65.3432 128.972C64.0084 129.385 62.6034 129.521 61.2142 129.372C60.5205 129.292 59.8528 129.061 59.2582 128.695C58.6637 128.329 58.1568 127.837 57.7734 127.253C57.4645 126.675 57.2858 126.037 57.2499 125.383C57.214 124.728 57.3217 124.074 57.5655 123.466Z" fill="white"/>
<path d="M82.5748 30.9985C82.3614 35.5027 83.8714 39.919 86.7978 43.3496C89.4508 46.3919 93.1984 48.2629 97.2244 48.5551C101.25 48.8472 105.229 47.5369 108.293 44.9095C110.41 45.0204 112.496 44.3671 114.172 43.0686C114.923 42.484 115.513 41.7179 115.886 40.8424C116.259 39.9669 116.403 39.0108 116.305 38.0641C116.185 37.4073 115.906 36.79 115.492 36.2664C115.078 35.7428 114.541 35.329 113.93 35.0614C115.086 32.0562 115.216 28.7534 114.302 25.6661C113.388 22.5789 111.479 19.8801 108.873 17.9892C102.023 13.1233 92.3397 13.7931 86.7108 20.195C84.1327 23.2145 82.6722 27.0293 82.5748 30.9985Z" fill="white"/>
<path d="M84.8053 22.8897C83.8045 24.6822 83.1269 26.6368 82.8035 28.6642C86.874 29.0249 90.9751 28.5308 94.8435 27.2136C94.9519 27.1769 95.0668 27.163 95.1809 27.1728C95.295 27.1826 95.4058 27.2159 95.5064 27.2706C95.9914 27.5439 95.4055 28.6041 95.1314 29.0892C96.8561 29.575 101.079 28.7812 102.945 27.7556C103.982 30.2779 105.042 31.5922 107.076 32.5446L112.536 34.7196C113.019 34.7461 113.492 34.8623 113.931 35.0622C115.086 32.0562 115.215 28.7532 114.3 25.666C113.385 22.5787 111.477 19.8799 108.871 17.9884C102.023 13.1233 92.3397 13.7931 86.7108 20.195C85.9833 21.0243 85.3446 21.9274 84.8053 22.8897Z" fill="white"/>
<path d="M88.4947 125.863C88.6505 126.828 88.5473 127.818 88.1956 128.73C87.8439 129.642 87.2563 130.445 86.4929 131.056C84.2788 132.633 81.7844 133.773 79.1433 134.416C77.0075 134.982 72.7629 135.353 72.7214 132.078C72.6844 129.153 75.704 127.459 77.8844 126.168C79.5898 125.161 78.0384 122.497 76.33 123.509C73.753 125.032 71.1653 126.743 70.0744 129.669C69.5247 131.01 69.489 132.506 69.9741 133.872C70.4593 135.238 71.4311 136.377 72.7036 137.071C75.6625 138.62 79.151 137.79 82.1236 136.71C84.5532 135.908 86.8242 134.687 88.8343 133.104C89.8486 132.214 90.6289 131.089 91.1066 129.827C91.5842 128.565 91.7446 127.205 91.5736 125.867C91.5631 125.462 91.3975 125.076 91.111 124.789C90.8245 124.503 90.4389 124.337 90.0338 124.327C89.6263 124.33 89.2364 124.493 88.9483 124.781C88.6602 125.069 88.497 125.459 88.494 125.867L88.4947 125.863Z" fill="#211715"/>
<path d="M65.2994 115.598C63.9379 115.966 62.6497 116.565 61.4906 117.369C60.3362 118.032 59.2572 118.819 58.2723 119.715C56.3768 121.522 55.1303 124.342 55.9695 126.952C56.8557 129.713 59.7529 131.054 62.4938 130.981C65.4495 130.904 68.4792 129.725 71.0807 128.394C73.6407 127.085 76.5079 125.097 76.4863 121.896C76.4733 119.915 73.3928 119.911 73.4067 121.896C73.4221 124.158 70.0837 125.522 68.3976 126.277C67.1804 126.817 65.918 127.249 64.6249 127.567C63.3231 127.992 61.9234 128.017 60.6075 127.637C58.3824 126.802 58.4379 124.381 59.7051 122.695C60.5076 121.734 61.4791 120.928 62.5716 120.316C63.6413 119.528 64.8422 118.936 66.1186 118.568C68.0588 118.172 67.2373 115.203 65.2994 115.598Z" fill="#211715"/>
<path d="M77.5602 76.1367C73.1837 77.9164 69.0584 80.2604 65.2892 83.1091C63.4021 84.4116 61.8794 86.1752 60.8661 88.2322C60.0348 90.3928 59.696 92.7116 59.8744 95.0198C59.986 98.342 60.3055 101.641 60.7044 104.939C61.0647 107.918 61.047 110.955 61.5813 113.907C61.8187 114.96 62.3105 115.939 63.0136 116.758C63.7168 117.576 64.61 118.21 65.6149 118.604C68.2019 119.715 71.0513 119.302 73.7114 118.7C75.6439 118.264 74.8263 115.294 72.893 115.731C70.0189 116.38 65.1684 116.886 64.5293 112.947C64.1074 110.349 64.1113 107.669 63.7941 105.027C63.4615 102.255 63.1881 99.4953 63.0341 96.7082C62.8164 94.7458 62.8834 92.7623 63.2328 90.8191C63.7457 88.95 64.8616 87.3028 66.4072 86.1333C70.0199 83.2003 74.0559 80.8311 78.3779 79.1063C78.7649 78.9871 79.0919 78.7248 79.2921 78.3729C79.4924 78.0209 79.551 77.6059 79.4558 77.2123C79.3457 76.8194 79.085 76.4858 78.7304 76.284C78.3757 76.0821 77.9558 76.0284 77.5618 76.1344L77.5602 76.1367Z" fill="#211715"/>
<path d="M77.2407 90.9854C74.6022 92.8193 73.9401 95.695 73.8924 98.7177C73.8439 101.784 74.0071 104.849 74.1025 107.912C74.228 111.931 74.2103 115.955 74.4798 119.969C74.6045 121.828 74.4675 124.1 75.6485 125.64C76.7803 127.119 78.1693 127.429 79.9255 127.614C81.6112 127.778 83.3093 127.772 84.9938 127.596C86.7463 127.491 88.4767 127.151 90.1385 126.585C92.1479 125.802 92.2357 123.876 92.2534 122.012C92.2742 119.896 92.2819 117.778 92.3027 115.662C92.3227 113.569 92.3543 111.475 92.4236 109.383C92.3783 107.669 92.6041 105.958 93.0926 104.315C94.1205 101.532 97.7691 100.615 100.338 99.995C103.668 99.1912 106.874 98.1472 109.647 96.0476C111.324 94.7939 112.689 93.17 113.635 91.3024C114.582 89.4348 115.084 87.3739 115.103 85.2803C115.18 83.2985 112.1 83.3016 112.023 85.2803C112.017 86.8561 111.652 88.4097 110.957 89.8241C110.263 91.2385 109.256 92.4767 108.013 93.4453C105.81 95.0924 103.27 96.2328 100.575 96.7852C97.83 97.395 94.9143 98.1711 92.6677 99.9419C90.1723 101.905 89.5564 104.906 89.397 107.929C89.1945 111.746 89.2184 115.578 89.1922 119.401C89.1861 120.336 89.1786 121.27 89.1699 122.205C89.2227 122.64 89.2177 123.08 89.1553 123.514C89.0683 123.761 89.1045 123.668 88.942 123.758C88.2359 124.037 87.4932 124.213 86.7369 124.28C85.9554 124.421 85.1669 124.52 84.3748 124.577C82.8929 124.7 81.4029 124.688 79.9231 124.542C79.4381 124.537 78.9586 124.438 78.5119 124.249C77.7951 123.823 77.8143 122.996 77.742 122.279C77.3893 118.654 77.3331 115.011 77.2608 111.371C77.1915 107.914 77.0152 104.46 76.969 101.002C76.952 99.7001 76.9305 98.3882 77.0306 97.0886C77.039 96.9808 77.0475 96.873 77.0583 96.766C77.0898 96.458 77.0383 96.8599 77.0667 96.7151C77.1422 96.3047 77.2537 95.9018 77.4001 95.511C77.6693 94.7687 78.1513 94.1222 78.786 93.6524C80.4028 92.5291 78.863 89.8582 77.2323 90.9931L77.2407 90.9854Z" fill="#211715"/>
<path d="M81.2267 44.707C75.6947 48.8683 71.8383 54.8754 70.3577 61.6376C69.9458 63.5708 72.9138 64.397 73.3273 62.4568C74.583 56.4623 77.9346 51.1118 82.7804 47.3663C83.1234 47.1513 83.3715 46.8137 83.4742 46.4222C83.5769 46.0306 83.5265 45.6147 83.3332 45.259C83.1252 44.9085 82.7875 44.654 82.3932 44.5507C81.999 44.4474 81.5799 44.5035 81.2267 44.707Z" fill="#211715"/>
<path d="M71.7812 77.6181C70.0689 76.5502 69.3568 74.7462 69.0773 72.8315C68.7639 70.6841 69.1312 67.9517 72.254 67.171C73.3763 66.9479 74.5415 67.1654 75.5077 67.7785C76.5244 68.3704 77.3483 69.2438 77.8798 70.2933C78.4114 71.3429 78.628 72.5239 78.5034 73.6938C78.2925 76.2345 75.8926 78.5712 73.3657 78.2024C72.8027 78.12 72.263 77.921 71.7812 77.6181Z" fill="white"/>
<path d="M72.5581 76.2884C72.2049 76.0625 71.8925 75.7785 71.6341 75.4484C71.772 75.6201 71.5718 75.3552 71.5433 75.3121C71.4704 75.2018 71.4011 75.0891 71.3354 74.9741C71.2831 74.8825 71.233 74.7886 71.1814 74.6939C71.1814 74.6939 70.9913 74.2604 71.0775 74.4775C70.904 74.0219 70.7706 73.552 70.6787 73.0732C70.651 72.9382 70.6253 72.8029 70.6017 72.6674C70.584 72.5627 70.5432 72.1901 70.5871 72.6028C70.567 72.4087 70.547 72.214 70.537 72.0184C70.5222 71.659 70.5302 71.2989 70.5609 70.9405C70.5824 70.6518 70.5609 70.9405 70.5532 70.9921C70.5732 70.8935 70.5886 70.795 70.6102 70.6964C70.6587 70.4801 70.728 70.2753 70.7965 70.0643C70.6841 70.4108 70.8627 69.9365 70.9204 69.8334C70.9782 69.7302 71.2908 69.3421 71.0629 69.5947C71.1889 69.4536 71.3221 69.3189 71.4617 69.1912C71.6403 69.0296 71.1614 69.3637 71.5171 69.1504C71.6365 69.0788 71.7481 69.0018 71.8744 68.9356C71.9591 68.8902 72.0468 68.8455 72.1354 68.8071C71.9144 68.9033 72.1569 68.8071 72.1939 68.7932C72.4229 68.718 72.656 68.656 72.8922 68.6076C72.548 68.6662 73.0346 68.6177 73.1617 68.62C73.2887 68.6223 73.4157 68.6292 73.542 68.6431C73.6506 68.6531 73.6459 68.6531 73.5289 68.6431C73.6105 68.6577 73.6906 68.6746 73.7707 68.6946C74.2201 68.8008 74.6407 69.0045 75.0026 69.2913C75.0203 69.3037 75.2335 69.4646 75.0795 69.3406C75.1627 69.4053 75.2428 69.4738 75.3221 69.5423C75.5341 69.7262 75.7346 69.9229 75.9226 70.1313C76.4166 70.6816 76.7533 71.3547 76.8973 72.08C76.8919 72.0546 76.9836 72.5327 76.9497 72.3179C76.9158 72.1031 76.9759 72.5974 76.9735 72.5689C76.9907 72.8061 76.9956 73.0441 76.9882 73.2818C76.9843 73.4181 76.9774 73.5552 76.9659 73.6914C76.9712 73.6237 77.0221 73.4297 76.9582 73.7461C76.9052 74.0017 76.8363 74.2537 76.7518 74.5006C76.5978 74.9626 76.818 74.3844 76.6918 74.6384C76.6217 74.7793 76.5478 74.9179 76.4669 75.0527C76.3736 75.2409 76.2504 75.4128 76.102 75.5616C75.9286 75.7553 75.7407 75.9354 75.54 76.1005C75.707 75.9642 75.5092 76.1221 75.4814 76.1398C75.3513 76.2229 75.2235 76.3069 75.0888 76.3815C74.7479 76.5665 74.3704 76.674 73.9832 76.6964C73.4773 76.7125 72.9794 76.5684 72.5604 76.2845C72.2077 76.0784 71.7876 76.0208 71.3925 76.1244C70.9974 76.228 70.6596 76.4843 70.4535 76.8369C70.2473 77.1896 70.1897 77.6097 70.2933 78.0048C70.3969 78.3999 70.6532 78.7377 71.0059 78.9438C73.8546 80.6377 77.1653 79.4874 78.9561 76.8704C79.6961 75.6942 80.0862 74.3318 80.0809 72.9422C80.0756 71.5526 79.675 70.1931 78.9261 69.0226C77.4009 66.6775 74.5375 64.9336 71.6888 65.7251C70.491 66.0566 69.4325 66.7667 68.6714 67.7492C67.9103 68.7318 67.4874 69.9342 67.4658 71.1769C67.2756 74.1295 68.4775 77.3062 71.0074 78.9438C71.3601 79.15 71.7802 79.2076 72.1753 79.104C72.5704 79.0004 72.9082 78.7441 73.1143 78.3914C73.3205 78.0388 73.3781 77.6187 73.2745 77.2236C73.1709 76.8284 72.9145 76.4907 72.5619 76.2845L72.5581 76.2884Z" fill="#211715"/>
<path d="M81.6841 57.2998V74.4636C81.6841 76.4454 84.7638 76.4485 84.7638 74.4636V57.2998C84.7638 55.318 81.6841 55.3149 81.6841 57.2998Z" fill="#211715"/>
<path d="M82.6895 77.3832C77.9537 78.1862 73.1202 80.034 66.1362 81.1928C70.4409 83.2716 78.5366 87.2528 86.2781 91.1248C93.0049 88.3854 94.9197 87.908 99.1297 86.2943C92.0864 82.6602 82.7034 77.3809 82.6895 77.3832Z" fill="white"/>
<path d="M82.2806 75.8988C76.6971 76.8658 71.3246 78.7645 65.7273 79.7076C64.4461 79.924 64.2098 81.9673 65.36 82.5217C69.911 84.7175 74.4451 86.9556 78.9676 89.2015C80.3268 89.8754 81.6847 90.5507 83.0413 91.2272C83.7527 91.5821 84.4602 91.9455 85.1747 92.2927C85.5395 92.4905 85.9488 92.5918 86.3637 92.5868C86.7786 92.5818 87.1854 92.4708 87.5453 92.2643C89.6688 91.4081 91.8071 90.5899 93.9603 89.8097C95.822 89.1391 97.6906 88.4878 99.5391 87.781C100.678 87.346 101.185 85.6252 99.9072 84.9669C96.2593 83.0814 92.6491 81.1235 89.0513 79.1456C87.1973 78.127 85.3741 76.9729 83.4678 76.0536C81.6901 75.1974 80.1264 77.8521 81.9133 78.7129C83.8197 79.6322 85.6428 80.7863 87.4968 81.8049C91.0954 83.7828 94.7056 85.7399 98.3527 87.6262L98.7207 84.8114C94.4438 86.4467 90.1145 87.9173 85.87 89.6419L87.0564 89.7959C80.3581 86.4467 73.6598 83.1137 66.9145 79.8639L66.5465 82.678C72.1438 81.7348 77.5156 79.8362 83.0998 78.8692C83.4921 78.7582 83.8251 78.4973 84.0267 78.143C84.2284 77.7886 84.2826 77.3692 84.1777 76.9752C84.0614 76.5856 83.7991 76.2561 83.4456 76.0555C83.092 75.8549 82.6746 75.7988 82.2806 75.8988Z" fill="#211715"/>
<path d="M95.0891 84.515C95.5434 80.8348 99.3945 77.7659 104.34 79.8955C105.087 82.1914 106.384 85.6622 107.182 88.5632C106.094 89.4433 105.154 90.207 105.154 90.207C103.563 92.1272 100.05 91.7815 98.1388 90.6189C97.1023 89.9972 96.2647 89.0926 95.7245 88.0113C95.1843 86.9301 94.9639 85.7172 95.0891 84.515Z" fill="white"/>
<path d="M103.807 78.06C101.743 77.4022 99.5053 77.5697 97.5628 78.5273C95.8984 79.4122 94.6195 80.8807 93.9719 82.651C92.4474 86.6546 94.858 91.1632 98.7808 92.5991C101.181 93.4784 104.463 93.3498 106.243 91.2903C106.523 90.9967 106.679 90.6068 106.679 90.2012C106.679 89.7957 106.523 89.4057 106.243 89.1122C105.952 88.8268 105.561 88.667 105.154 88.667C104.747 88.667 104.356 88.8268 104.066 89.1122C103.989 89.1976 103.912 89.2762 103.835 89.3601C103.784 89.4171 103.55 89.6026 103.79 89.4209C103.627 89.5376 103.456 89.6421 103.278 89.7335C103.201 89.7735 102.932 89.8605 103.212 89.7666C103.125 89.7959 103.041 89.8267 102.953 89.8528C102.731 89.9195 102.505 89.971 102.275 90.0068C102.583 89.9583 102.275 90.0068 102.193 90.0068C102.074 90.0114 101.955 90.0214 101.836 90.0238C101.619 90.0238 101.405 90.0122 101.188 90.0037C101.111 90.0037 100.796 89.9645 101.097 90.0037C101.002 89.9914 100.907 89.9745 100.813 89.9575C100.558 89.9105 100.305 89.8506 100.056 89.7781C99.8571 89.7204 99.6639 89.6519 99.4706 89.5803C99.767 89.6896 99.2674 89.4817 99.1842 89.4378C99.0079 89.341 98.8374 89.2338 98.6738 89.1168C98.2988 88.8566 98.7977 89.2246 98.5921 89.0544C98.4859 88.9659 98.3812 88.8773 98.2796 88.7842C98.1317 88.6494 97.9885 88.5101 97.8523 88.3638C97.7937 88.3014 97.736 88.2368 97.679 88.1721C97.679 88.1721 97.4149 87.8487 97.5589 88.0335C97.7029 88.2183 97.4596 87.8926 97.4581 87.8895C97.4119 87.8226 97.3664 87.7548 97.3233 87.6863C97.2055 87.5024 97.0978 87.3122 97.0007 87.1165C96.9568 87.0295 96.9168 86.941 96.8768 86.8532C96.8976 86.8994 96.9876 87.1612 96.9014 86.9017C96.8429 86.7216 96.7782 86.546 96.7289 86.3628C96.6904 86.2196 96.6596 86.0748 96.6296 85.9293C96.6242 85.9016 96.5719 85.5444 96.6057 85.8077C96.6389 86.0625 96.598 85.6822 96.595 85.6321C96.5803 85.2907 96.5873 84.9487 96.6158 84.6081C96.5957 84.9538 96.6073 84.6605 96.6412 84.4888C96.6816 84.2796 96.733 84.0728 96.7952 83.869C96.8367 83.7335 96.8906 83.6018 96.9353 83.4671C97.0431 83.1399 96.809 83.6734 96.926 83.4925C96.9722 83.4201 97.003 83.3301 97.0423 83.2538C97.1152 83.1111 97.1937 82.9723 97.2779 82.8373C97.3326 82.748 97.6998 82.2483 97.4319 82.5809C97.6316 82.3292 97.8502 82.0929 98.0855 81.8741C98.1433 81.8202 98.5136 81.5169 98.3427 81.6478C98.1417 81.8018 98.4312 81.5885 98.4497 81.5762C98.5413 81.5161 98.6314 81.4553 98.7253 81.3983C98.8793 81.3029 99.0441 81.2151 99.2089 81.1342C99.2281 81.125 99.563 80.9803 99.3305 81.075C99.1111 81.1658 99.4706 81.0272 99.5153 81.0118C99.7144 80.9433 99.9169 80.8853 100.122 80.8378C100.257 80.807 100.793 80.7385 100.411 80.7732C100.866 80.7368 101.324 80.7325 101.78 80.7601C101.847 80.7601 102.082 80.7955 101.763 80.7508C101.897 80.7703 102.03 80.7932 102.162 80.8193C102.439 80.8748 102.71 80.9464 102.981 81.0272C103.176 81.081 103.379 81.0958 103.58 81.0708C103.781 81.0458 103.975 80.9816 104.15 80.8817C104.326 80.7818 104.481 80.6483 104.605 80.4887C104.729 80.3291 104.821 80.1466 104.875 79.9516C104.928 79.7567 104.943 79.553 104.918 79.3523C104.893 79.1516 104.829 78.9578 104.729 78.7819C104.629 78.606 104.496 78.4515 104.336 78.3273C104.177 78.203 103.994 78.1114 103.799 78.0576L103.807 78.06Z" fill="#211715"/>
<path d="M108.522 67.2595C108.463 66.8484 108.499 67.0809 108.522 67.3203C108.539 67.5221 108.555 67.7238 108.57 67.9255C108.61 68.5014 108.641 69.0804 108.668 69.6563C108.726 70.9205 108.768 72.1886 108.738 73.4535C108.733 73.7015 108.724 73.9486 108.708 74.1957C108.699 74.3397 108.69 74.8887 108.691 74.476C108.691 74.884 108.552 74.476 108.748 74.4429C108.532 74.4829 108.118 74.9256 107.892 75.1081C106.344 76.3577 104.839 77.6604 103.288 78.9061C103.092 79.096 102.951 79.336 102.881 79.6001C102.811 79.8642 102.815 80.1423 102.892 80.4044C103.854 83.3216 104.942 86.198 105.753 89.163C105.818 89.3888 105.934 89.597 106.091 89.7718C106.248 89.9466 106.443 90.0836 106.661 90.1725C106.878 90.2614 107.113 90.2998 107.348 90.285C107.582 90.2702 107.811 90.2025 108.015 90.0869C114.4 86.5152 123.323 82.8758 123.133 74.2104C122.967 70.3992 122.369 66.6192 121.349 62.9433C120.548 59.439 119.062 56.1278 116.976 53.2008C114.45 49.8901 111.439 46.5864 107.71 44.6192C105.958 43.6953 104.4 46.3523 106.156 47.2785C109.131 48.8476 111.558 51.3753 113.672 53.9507C115.649 56.4114 117.11 59.2459 117.966 62.2843C118.878 65.4524 119.517 68.6928 119.875 71.9699C120.095 73.8039 120.269 75.7795 119.55 77.531C118.925 78.8886 118.006 80.0906 116.86 81.0503C113.834 83.7943 109.99 85.4528 106.461 87.4276L108.723 88.3515C107.911 85.3865 106.823 82.5101 105.862 79.5929L105.465 81.0904C107.124 79.7584 108.728 78.3587 110.393 77.0329C111.548 76.1159 111.752 75.2205 111.808 73.8077C111.923 71.3501 111.818 68.8871 111.495 66.448C111.385 66.0551 111.125 65.7215 110.77 65.5197C110.415 65.3179 109.995 65.2642 109.601 65.3701C109.213 65.4871 108.884 65.749 108.684 66.1016C108.483 66.4542 108.426 66.8704 108.523 67.2641L108.522 67.2595Z" fill="#211715"/>
<path d="M115.655 34.8235C116.661 31.6733 116.684 28.2915 115.72 25.1281C114.756 21.9647 112.852 19.1698 110.261 17.1153C107.706 15.1622 104.69 13.9019 101.506 13.4568C98.3207 13.0117 95.0748 13.3967 92.0824 14.5746C85.7691 17.1646 81.8102 23.0591 81.1234 29.7636C80.7556 33.0907 81.275 36.4558 82.6289 39.5171C83.9828 42.5784 86.1229 45.2268 88.8318 47.1931C95.1344 51.5947 104.248 50.8202 109.822 45.5963C111.272 44.2381 109.091 42.0639 107.645 43.4182C105.58 45.2712 103.011 46.4698 100.264 46.8622C97.5172 47.2546 94.7156 46.8231 92.2141 45.6224C87.031 43.0332 84.1369 37.4713 84.1053 31.7931C84.0753 26.3352 86.6722 21.0235 91.4834 18.2656C93.8 16.9901 96.4048 16.3295 99.0493 16.3469C101.694 16.3643 104.29 17.0591 106.589 18.3649C109.258 19.8637 111.325 22.2415 112.437 25.0931C113.549 27.9448 113.637 31.0938 112.688 34.0036C112.078 35.8937 115.05 36.7037 115.657 34.822L115.655 34.8235Z" fill="#211715"/>
<path d="M112.539 36.2617C112.901 36.2879 112.37 36.1947 112.693 36.2794C112.83 36.3148 112.968 36.3441 113.104 36.3872C113.181 36.4126 113.496 36.5628 113.263 36.4442C113.39 36.5089 113.516 36.5743 113.637 36.6498C113.693 36.6836 113.994 36.9023 113.791 36.7398C113.902 36.8296 114.008 36.9255 114.108 37.027C114.21 37.1271 114.306 37.2333 114.395 37.345C114.215 37.114 114.45 37.4474 114.482 37.499C114.556 37.6208 114.623 37.747 114.682 37.877C114.56 37.6029 114.709 37.984 114.727 38.0464C114.768 38.1852 114.799 38.3267 114.821 38.4699C114.777 38.1665 114.817 38.5923 114.821 38.6562C114.821 38.8102 114.814 38.9564 114.806 39.1073C114.787 39.4515 114.858 38.9896 114.774 39.2968C114.705 39.5477 114.571 40.0328 114.526 40.1367C114.315 40.5939 114.039 41.0183 113.707 41.3971C113.331 41.821 112.878 42.1704 112.372 42.4272C111.857 42.7339 111.3 42.9634 110.718 43.1086C110.396 43.1997 110.068 43.2725 109.737 43.3265C109.627 43.3435 109.627 43.3435 109.737 43.3265C109.655 43.3365 109.574 43.3442 109.492 43.3512C109.303 43.3673 109.115 43.375 108.926 43.3796C108.518 43.3796 108.126 43.5419 107.837 43.8307C107.548 44.1194 107.386 44.5111 107.386 44.9195C107.386 45.3279 107.548 45.7195 107.837 46.0083C108.126 46.2971 108.518 46.4593 108.926 46.4593C112.599 46.3692 116.311 44.3805 117.559 40.7773C117.858 39.9565 117.965 39.0784 117.873 38.2098C117.781 37.3413 117.492 36.5051 117.028 35.7651C116.53 35.018 115.866 34.3962 115.087 33.9481C114.309 33.5001 113.438 33.2379 112.542 33.182C112.134 33.1843 111.744 33.3472 111.455 33.6355C111.167 33.9238 111.004 34.3142 111.002 34.7219C111.011 35.1273 111.177 35.5134 111.463 35.8001C111.75 36.0868 112.136 36.2521 112.542 36.2617H112.539Z" fill="#211715"/>
<path d="M92.288 36.6005C92.2686 36.9607 92.1694 37.312 91.9976 37.6292C91.8259 37.9463 91.5858 38.2214 91.2948 38.4345C90.8817 38.6994 90.3818 38.7938 89.9005 38.6978C89.572 38.6394 89.2618 38.5044 88.9952 38.3038C88.7286 38.1031 88.5131 37.8425 88.3661 37.5429C88.1532 37.0624 88.0981 36.5267 88.2088 36.0129C88.3195 35.4992 88.5902 35.0337 88.982 34.6834C89.364 34.3657 89.8521 34.2043 90.3482 34.2316C90.8443 34.2589 91.3118 34.4728 91.6567 34.8305C91.8866 35.0602 92.0626 35.3382 92.1718 35.6444C92.281 35.9505 92.3207 36.2771 92.288 36.6005Z" fill="#211715"/>
<path d="M101.65 38.5122C101.63 38.8723 101.531 39.2235 101.359 39.5407C101.187 39.8578 100.947 40.1329 100.656 40.3462C100.243 40.6117 99.7431 40.7064 99.2614 40.6102C98.933 40.5517 98.6231 40.4166 98.3566 40.216C98.0902 40.0153 97.8747 39.7547 97.7277 39.4554C97.5148 38.9747 97.4597 38.4389 97.5704 37.925C97.681 37.4111 97.9518 36.9455 98.3437 36.5951C98.7256 36.2774 99.2136 36.116 99.7097 36.1435C100.206 36.1709 100.673 36.3851 101.018 36.7429C101.247 36.9726 101.423 37.2505 101.533 37.5565C101.642 37.8624 101.682 38.1889 101.65 38.5122Z" fill="#211715"/>
<path d="M101.463 28.1675C101.958 29.4817 102.656 30.71 103.531 31.8077C104.298 32.6867 105.242 33.3921 106.303 33.8765C106.666 34.0739 107.089 34.1288 107.49 34.0305C107.782 33.9501 108.044 33.7852 108.243 33.5566C108.442 33.3279 108.569 33.0456 108.608 32.745C108.647 32.4445 108.597 32.139 108.463 31.867C108.33 31.5949 108.119 31.3684 107.857 31.2157C107.336 30.9743 106.842 30.678 106.383 30.3318L106.691 30.5728C106.247 30.2241 105.847 29.8211 105.503 29.3732L105.743 29.6851C105.184 28.916 104.722 28.081 104.368 27.199L104.521 27.5662C104.491 27.4939 104.46 27.4207 104.43 27.3468C104.311 26.9649 104.06 26.6376 103.722 26.4229C103.548 26.3208 103.355 26.254 103.154 26.2265C102.954 26.199 102.75 26.2113 102.554 26.2626C102.358 26.314 102.175 26.4034 102.014 26.5257C101.852 26.6481 101.717 26.801 101.615 26.9757C101.508 27.152 101.44 27.3485 101.413 27.5527C101.387 27.757 101.403 27.9645 101.461 28.1622L101.463 28.1675Z" fill="#211715"/>
<path d="M102.168 26.4314C100.411 27.3553 97.4049 28.0752 95.541 27.6094L96.4649 29.8714C97.0577 28.812 97.7044 27.3391 96.7136 26.2912C95.5702 25.0809 93.9418 25.9332 92.633 26.2912C89.5912 27.0835 86.4412 27.3776 83.3054 27.162C81.3251 27.0519 81.3313 30.1316 83.3054 30.2417C85.3912 30.3656 87.484 30.2934 89.5564 30.0261C90.5326 29.8976 91.502 29.7313 92.4613 29.5064C92.9587 29.3909 93.4522 29.2626 93.9418 29.1215C94.2167 29.0445 94.4893 28.9559 94.761 28.8674C94.8704 28.8328 94.9797 28.7966 95.0882 28.7588C95.3038 28.6819 95.3061 28.6819 95.0959 28.7588L94.4169 28.3631L94.5316 28.467L94.1359 27.788C93.9819 27.42 94.2698 27.4523 94.0943 27.761C93.9919 27.9427 93.9033 28.1329 93.8009 28.3154C93.6852 28.52 93.6174 28.7483 93.6025 28.9829C93.5876 29.2176 93.626 29.4525 93.7149 29.6702C93.8038 29.8879 93.9409 30.0826 94.1158 30.2397C94.2907 30.3968 94.4989 30.5123 94.7248 30.5774C96.2283 30.8629 97.7744 30.8367 99.2674 30.5004C100.82 30.2679 102.325 29.7914 103.728 29.0884C105.482 28.1645 103.928 25.5044 102.174 26.4291L102.168 26.4314Z" fill="#211715"/>
</svg>
